<?xml version="1.0" encoding="utf-8"?>
<!DOCTYPE svg PUBLIC "-//W3C//DTD SVG 1.1//EN" "http://www.w3.org/Graphics/SVG/1.1/DTD/svg11.dtd">
<svg version="1.1" id="Layer_1" xmlns="http://www.w3.org/2000/svg" xmlns:xlink="http://www.w3.org/1999/xlink" x="0px" y="0px"
	 width="150px" height="150px" viewBox="0 0 150 150" enable-background="new 0 0 150 150" xml:space="preserve">
<g>
	<polygon fill="#54FF95" points="42.737,93.238 10.561,61.866 55.031,55.406 74.918,15.112 94.801,55.406 139.274,61.866 
		107.092,93.237 114.688,137.522 74.918,116.61 35.143,137.523 	"/>
	<path fill="#279C5A" d="M74.917,26.304l14.289,28.958l2.306,4.671l5.154,0.749l31.964,4.643l-23.131,22.548l-3.729,3.636
		l0.88,5.133l5.46,31.826l-28.581-15.029l-4.611-2.424l-4.61,2.424l-28.588,15.03l5.458-31.827l0.88-5.133l-3.728-3.635
		L21.203,65.325l31.963-4.643l5.154-0.749l2.305-4.67L74.917,26.304 M74.918,3.919L51.742,50.879l-51.824,7.528l37.498,36.56
		l-8.851,51.611l46.354-24.372l46.349,24.372l-8.854-51.611l37.504-36.56L98.09,50.879L74.918,3.919L74.918,3.919z"/>
</g>
<g>
	<polygon fill="#FDFF9C" points="69.234,90.633 55.361,88.494 65.496,78.785 63.246,64.931 75.611,71.572 88.091,65.15 
		85.597,78.961 95.562,88.846 81.654,90.743 75.333,103.273 	"/>
	<path fill="#CBD638" d="M65.275,67.777l8.888,4.773l1.433,0.77l1.447-0.745l8.969-4.615l-1.793,9.925l-0.289,1.601l1.155,1.146
		l7.162,7.104l-9.996,1.364l-1.612,0.22l-0.732,1.452l-4.543,9.005l-4.382-9.084l-0.707-1.465l-1.608-0.248l-9.971-1.537
		l7.285-6.979l1.174-1.125l-0.261-1.605L65.275,67.777 M61.217,62.085l2.622,16.146L52.027,89.546l16.167,2.492l7.107,14.731
		l7.368-14.604l16.208-2.211l-11.613-11.52l2.907-16.095l-14.544,7.484L61.217,62.085L61.217,62.085z"/>
</g>
</svg>
